<svg xmlns="http://www.w3.org/2000/svg" width="1024" height="1024" viewBox="0 0 1024 1024">
  <g fill="none" fill-rule="evenodd">
    <line x1="188" x2="937" y1="892.5" y2="893" stroke="#999" stroke-width="6"/>
    <line x1="188" x2="937" y1="626.5" y2="626.5" stroke="#999" stroke-width="6" opacity=".65"/>
    <line x1="188" x2="937" y1="360.5" y2="360.5" stroke="#999" stroke-width="6" opacity=".65"/>
    <line x1="188" x2="937" y1="94" y2="94" stroke="#999" stroke-width="6" opacity=".65"/>
    <polyline stroke="#5B8FF9" stroke-width="12" points="188 542 367.802 597 541.594 486 748.5 524 935.5 391"/>
    <line x1="188" x2="188" y1="892" y2="912" stroke="#999" stroke-width="6"/>
    <line x1="374.5" x2="374.5" y1="892" y2="912" stroke="#999" stroke-width="6"/>
    <line x1="561.5" x2="561.5" y1="892" y2="912" stroke="#999" stroke-width="6"/>
    <line x1="748.5" x2="748.5" y1="892" y2="912" stroke="#999" stroke-width="6"/>
    <line x1="935.5" x2="935.5" y1="892" y2="912" stroke="#999" stroke-width="6"/>
    <text fill="#999" font-family="PingFangSC-Medium, PingFang SC" font-size="48" font-weight="400">
      <tspan x="134.008" y="962">2016</tspan>
    </text>
    <text fill="#999" font-family="PingFangSC-Medium, PingFang SC" font-size="48" font-weight="400">
      <tspan x="75.408" y="643">100</tspan>
    </text>
    <text fill="#000" font-family="PingFangSC-Medium, PingFang SC" font-size="48" font-weight="400" opacity=".45">
      <tspan x="138.1" y="910">0</tspan>
    </text>
    <text fill="#999" font-family="PingFangSC-Medium, PingFang SC" font-size="48" font-weight="400">
      <tspan x="65.8" y="375">200</tspan>
    </text>
    <text fill="#999" font-family="PingFangSC-Medium, PingFang SC" font-size="48" font-weight="400">
      <tspan x="65.8" y="108">300</tspan>
    </text>
    <text fill="#999" font-family="PingFangSC-Medium, PingFang SC" font-size="48" font-weight="400">
      <tspan x="321.184" y="962">2017</tspan>
    </text>
    <text fill="#999" font-family="PingFangSC-Medium, PingFang SC" font-size="48" font-weight="400">
      <tspan x="505.008" y="962">2018</tspan>
    </text>
    <text fill="#999" font-family="PingFangSC-Medium, PingFang SC" font-size="48" font-weight="400">
      <tspan x="692.008" y="962">2019</tspan>
    </text>
    <text fill="#999" font-family="PingFangSC-Medium, PingFang SC" font-size="48" font-weight="400">
      <tspan x="879.4" y="962">2020</tspan>
    </text>
    <polyline stroke="#5AD8A6" stroke-width="12" points="188 472 367.802 660 541.594 416 748.5 454 935.5 248"/>
  </g>
</svg>
