<svg xmlns="http://www.w3.org/2000/svg" width="1024" height="1024" viewBox="0 0 1024 1024">
  <g fill="none" fill-rule="evenodd">
    <line x1="195" x2="944" y1="892.5" y2="893" stroke="#999" stroke-width="6"/>
    <line x1="195" x2="944" y1="626.5" y2="626.5" stroke="#000" stroke-width="6" opacity=".15"/>
    <line x1="195" x2="944" y1="360.5" y2="360.5" stroke="#000" stroke-width="6" opacity=".15"/>
    <line x1="195" x2="944" y1="94" y2="94" stroke="#000" stroke-width="6" opacity=".15"/>
    <line x1="476.5" x2="476.5" y1="892" y2="912" stroke="#999" stroke-width="6"/>
    <line x1="281" x2="281" y1="892" y2="912" stroke="#999" stroke-width="6"/>
    <line x1="671.5" x2="671.5" y1="892" y2="912" stroke="#999" stroke-width="6"/>
    <line x1="866.5" x2="866.5" y1="892" y2="912" stroke="#999" stroke-width="6"/>
    <text fill="#999" font-family="PingFangSC-Medium, PingFang SC" font-size="48" font-weight="400">
      <tspan x="264" y="972">A</tspan>
    </text>
    <text fill="#999" font-family="PingFangSC-Medium, PingFang SC" font-size="48" font-weight="400">
      <tspan x="82.408" y="643">100</tspan>
    </text>
    <text fill="#999" font-family="PingFangSC-Medium, PingFang SC" font-size="48" font-weight="400">
      <tspan x="145.1" y="910">0</tspan>
    </text>
    <text fill="#999" font-family="PingFangSC-Medium, PingFang SC" font-size="48" font-weight="400">
      <tspan x="72.8" y="375">200</tspan>
    </text>
    <text fill="#999" font-family="PingFangSC-Medium, PingFang SC" font-size="48" font-weight="400">
      <tspan x="72.8" y="108">300</tspan>
    </text>
    <text fill="#999" font-family="PingFangSC-Medium, PingFang SC" font-size="48" font-weight="400">
      <tspan x="458" y="972">B</tspan>
    </text>
    <text fill="#999" font-family="PingFangSC-Medium, PingFang SC" font-size="48" font-weight="400">
      <tspan x="653" y="972">C</tspan>
    </text>
    <text fill="#999" font-family="PingFangSC-Medium, PingFang SC" font-size="48" font-weight="400">
      <tspan x="850" y="972">D</tspan>
    </text>
    <rect width="85" height="362" x="242" y="528" fill="#5B8FF9"/>
    <rect width="85" height="314" x="436" y="576" fill="#5B8FF9"/>
    <rect width="85" height="640" x="629" y="250" fill="#5B8FF9"/>
    <rect width="85" height="554" x="823" y="336" fill="#5B8FF9"/>
  </g>
</svg>
