<svg xmlns="http://www.w3.org/2000/svg" width="1024" height="1024" viewBox="0 0 1024 1024">
  <g fill="none" fill-rule="evenodd">
    <rect width="48" height="362" x="291.5" y="-9" fill="#5B8FF9" transform="rotate(90 315.5 172)"/>
    <rect width="48" height="433" x="327" y="11.5" fill="#5AD8A6" transform="rotate(90 351 228)"/>
    <rect width="48" height="314" x="267.5" y="208" fill="#5B8FF9" transform="rotate(90 291.5 365)"/>
    <rect width="48" height="420" x="320.5" y="211" fill="#5AD8A6" transform="rotate(90 344.5 421)"/>
    <rect width="48" height="640" x="430.5" y="241" fill="#5B8FF9" transform="rotate(90 454.5 561)"/>
    <rect width="48" height="782" x="501.5" y="226" fill="#5AD8A6" transform="rotate(90 525.5 617)"/>
    <rect width="48" height="554" x="387.5" y="479" fill="#5B8FF9" transform="rotate(90 411.5 756)"/>
    <rect width="48" height="698" x="459.5" y="463" fill="#5AD8A6" transform="rotate(90 483.5 812)"/>
    <g transform="translate(59.734 94)">
      <line x1="-328" x2="468" y1="398.234" y2="398.766" stroke="#999" stroke-width="6" transform="rotate(90 70 398.5)"/>
      <line x1="-61.234" x2="734.766" y1="398.5" y2="398.5" stroke="#999" stroke-width="6" opacity=".65" transform="rotate(90 336.766 398.5)"/>
      <line x1="204.766" x2="1000.766" y1="398.5" y2="398.5" stroke="#999" stroke-width="6" opacity=".65" transform="rotate(90 602.766 398.5)"/>
      <line x1="472.266" x2="1268.266" y1="398.5" y2="398.5" stroke="#999" stroke-width="6" opacity=".65" transform="rotate(90 870.266 398.5)"/>
      <line x1="61.266" x2="61.266" y1="290" y2="310" stroke="#999" stroke-width="6" transform="rotate(90 61.266 300)"/>
      <line x1="61.266" x2="61.266" y1="94.5" y2="114.5" stroke="#999" stroke-width="6" transform="rotate(90 61.266 104.5)"/>
      <line x1="61.266" x2="61.266" y1="485" y2="505" stroke="#999" stroke-width="6" transform="rotate(90 61.266 495)"/>
      <line x1="61.266" x2="61.266" y1="680" y2="700" stroke="#999" stroke-width="6" transform="rotate(90 61.266 690)"/>
      <text fill="#999" font-family="PingFangSC-Medium, PingFang SC" font-size="48" font-weight="400">
        <tspan x="1.766" y="131">A</tspan>
      </text>
      <text fill="#999" font-family="PingFangSC-Medium, PingFang SC" font-size="48" font-weight="400">
        <tspan x="1.766" y="325">B</tspan>
      </text>
      <text fill="#999" font-family="PingFangSC-Medium, PingFang SC" font-size="48" font-weight="400">
        <tspan x=".266" y="521.5">C</tspan>
      </text>
      <text fill="#999" font-family="PingFangSC-Medium, PingFang SC" font-size="48" font-weight="400">
        <tspan x=".766" y="718">D</tspan>
      </text>
      <text fill="#999" font-family="PingFangSC-Medium, PingFang SC" font-size="48" font-weight="400">
        <tspan x="60.266" y="867">0</tspan>
      </text>
      <text fill="#999" font-family="PingFangSC-Medium, PingFang SC" font-size="48" font-weight="400">
        <tspan x="297.266" y="867">100</tspan>
      </text>
      <text fill="#999" font-family="PingFangSC-Medium, PingFang SC" font-size="48" font-weight="400">
        <tspan x="566.266" y="867">200</tspan>
      </text>
      <text fill="#999" font-family="PingFangSC-Medium, PingFang SC" font-size="48" font-weight="400">
        <tspan x="826.266" y="867">300</tspan>
      </text>
    </g>
  </g>
</svg>
