<svg xmlns="http://www.w3.org/2000/svg" width="1024" height="1024" viewBox="0 0 1024 1024">
  <g fill="none" fill-rule="evenodd">
    <line x1="186" x2="935" y1="94.5" y2="94.5" stroke="#000" stroke-width="6" opacity=".15"/>
    <line x1="186" x2="935" y1="94" y2="94" stroke="#000" stroke-width="6" opacity=".15"/>
    <path fill="#5AD8A6" fill-rule="nonzero" d="M185,372 L364.801877,560 L538.594464,316 L745.5,354 L932.5,148 L934,892 L932.5,892 L932.5,488 L745.5,621 L538.594464,583 L364.801877,694 L185,639 L185,372 Z" opacity=".3"/>
    <polygon fill="#5B8FF9" fill-rule="nonzero" points="185 639 364.802 694 538.594 583 745.5 621 932.5 488 932.5 892 185 892" opacity=".3"/>
    <polyline stroke="#5B8FF9" stroke-width="12" points="185 639 364.802 694 538.594 583 745.5 621 932.5 488"/>
    <polyline stroke="#5AD8A6" stroke-width="12" points="185 372 364.802 560 538.594 316 745.5 354 932.5 148"/>
    <polygon fill="#FF9845" fill-rule="nonzero" points="185 372 364.802 560 538.594 316 745.5 354 932.5 148 934 94 185 94" opacity=".3"/>
    <line x1="185" x2="934" y1="94.5" y2="94.5" stroke="#FF9845" stroke-width="12"/>
    <g transform="translate(65.5 57)">
      <line x1="122.5" x2="871.5" y1="303.5" y2="303.5" stroke="#999" stroke-width="6" opacity=".65"/>
      <line x1="122.5" x2="871.5" y1="835.5" y2="836" stroke="#999" stroke-width="6"/>
      <line x1="122.5" x2="871.5" y1="569.5" y2="569.5" stroke="#999" stroke-width="6" opacity=".65"/>
      <line x1="122.5" x2="871.5" y1="37" y2="37" stroke="#999" stroke-width="6" opacity=".65"/>
      <line x1="122.5" x2="122.5" y1="835" y2="855" stroke="#999" stroke-width="6"/>
      <line x1="309" x2="309" y1="835" y2="855" stroke="#999" stroke-width="6"/>
      <line x1="496" x2="496" y1="835" y2="855" stroke="#999" stroke-width="6"/>
      <line x1="683" x2="683" y1="835" y2="855" stroke="#999" stroke-width="6"/>
      <line x1="870" x2="870" y1="835" y2="855" stroke="#999" stroke-width="6"/>
      <text fill="#999" font-family="PingFangSC-Medium, PingFang SC" font-size="48" font-weight="400">
        <tspan x="68.5" y="905">2016</tspan>
      </text>
      <text fill="#999" font-family="PingFangSC-Medium, PingFang SC" font-size="48" font-weight="400">
        <tspan x="9.5" y="586">100</tspan>
      </text>
      <text fill="#000" font-family="PingFangSC-Medium, PingFang SC" font-size="48" font-weight="400" opacity=".45">
        <tspan x="72.5" y="853">0</tspan>
      </text>
      <text fill="#999" font-family="PingFangSC-Medium, PingFang SC" font-size="48" font-weight="400">
        <tspan x="0" y="318">200</tspan>
      </text>
      <text fill="#999" font-family="PingFangSC-Medium, PingFang SC" font-size="48" font-weight="400">
        <tspan x="0" y="51">300</tspan>
      </text>
      <text fill="#999" font-family="PingFangSC-Medium, PingFang SC" font-size="48" font-weight="400">
        <tspan x="255.5" y="905">2017</tspan>
      </text>
      <text fill="#999" font-family="PingFangSC-Medium, PingFang SC" font-size="48" font-weight="400">
        <tspan x="439.5" y="905">2018</tspan>
      </text>
      <text fill="#999" font-family="PingFangSC-Medium, PingFang SC" font-size="48" font-weight="400">
        <tspan x="626.5" y="905">2019</tspan>
      </text>
      <text fill="#999" font-family="PingFangSC-Medium, PingFang SC" font-size="48" font-weight="400">
        <tspan x="813.5" y="905">2020</tspan>
      </text>
    </g>
  </g>
</svg>
